P2
#Ejemplo 95.12
21	 9
20
0 0 0 0 0 0 0 0 0 0 0 0 0
0 0 0 0 0 0 0 0 0 20 20 20 20
0 15 15 15 15 0 0 0 10 0 0 5 5
5 5 0 0 20 0 0 20 0 15 0 0 0
0 0 0 10 0 0 0 0 0 5 0 0 20
0 0 20 0 15 0 0 0 0 0 0 10 0
0 0 0 0 5 0 0 20 20 20 20 0 15
15 15 15 0 0 0 10 0 0 5 5 5 5
0 0 0 0 0 20 0 0 0 0 15 0 0
0 10 0 0 5 0 0 0 0 0 0 0 0
20 0 0 0 0 15 0 0 0 10 0 0 5
0 0 0 0 0 20 20 20 20 0 15 15 15
15 0 0 0 10 0 0 5 5 5 5 0 0
0 0 0 0 0 0 0 0 0 0 0 0 0
0 0 0 0 0 0 0

